<?xml version="1.0" standalone="no"?>
<!DOCTYPE svg PUBLIC "-//W3C//DTD SVG 20010904//EN"
 "http://www.w3.org/TR/2001/REC-SVG-20010904/DTD/svg10.dtd">
<svg version="1.0" xmlns="http://www.w3.org/2000/svg"
 width="512.000000pt" height="512.000000pt" viewBox="0 0 512.000000 512.000000"
 preserveAspectRatio="xMidYMid meet">
<metadata>
Created by potrace 1.11, written by Peter Selinger 2001-2013
</metadata>
<g transform="translate(0.000000,512.000000) scale(0.100000,-0.100000)"
fill="#000000" stroke="none">
<path d="M2345 4648 c-373 -37 -742 -183 -1055 -417 -93 -69 -273 -242 -351
-337 -151 -184 -300 -455 -373 -676 -88 -266 -122 -576 -95 -854 38 -392 179
-753 418 -1074 69 -93 242 -273 337 -351 184 -151 455 -300 676 -373 266 -88
576 -122 854 -95 261 25 480 87 719 203 355 172 642 427 859 764 68 104 179
339 220 464 88 266 122 575 95 854 -38 392 -179 753 -418 1074 -69 93 -242
273 -337 351 -184 151 -455 300 -676 373 -267 89 -588 123 -873 94z"/>
</g>
</svg>
